<svg height="512" viewBox="0 0 512 512" width="512" xmlns="http://www.w3.org/2000/svg"><g id="filled_outline" data-name="filled outline"><rect fill="#c7830b" height="272" rx="26" width="416" x="72" y="120"/><path d="m480.02 384.73a25.885 25.885 0 0 1 -18.02 7.27h-364a25.92 25.92 0 0 1 -18.54-7.78l169.08-114.84-168.34-142.31a25.814 25.814 0 0 1 17.8-7.07h364a25.818 25.818 0 0 1 17.73 7l-168.31 142.42z" fill="#c7830b"/><path d="m480.02 384.73a25.885 25.885 0 0 1 -18.02 7.27h-364a25.92 25.92 0 0 1 -18.54-7.78l169.08-114.84 13.46-9.14a32 32 0 0 1 36 0l13.42 9.18z" fill="#d78e0c"/><path d="m479.73 127-168.31 142.42-9.46 8a34.01 34.01 0 0 1 -43.92 0l-9.5-8.04-168.34-142.31a25.814 25.814 0 0 1 17.8-7.07h364a25.818 25.818 0 0 1 17.73 7z" fill="#ee9d0d"/><path d="m462 112h-364a34.038 34.038 0 0 0 -34 34v110h-40a8 8 0 0 0 0 16h40v48h-16a8 8 0 0 0 0 16h16v30a34.038 34.038 0 0 0 34 34h364a34.038 34.038 0 0 0 34-34v-220a34.038 34.038 0 0 0 -34-34zm-364 16h364a18 18 0 0 1 3.7.387l-168.906 142.923a25.923 25.923 0 0 1 -33.588 0l-168.906-142.923a17.993 17.993 0 0 1 3.7-.387zm-18 238v-30h16a8 8 0 0 0 0-16h-16v-16h24a8 8 0 0 0 0-16h-24v-16h32a8 8 0 0 0 0-16h-32v-110a17.85 17.85 0 0 1 1.684-7.552 8.046 8.046 0 0 0 1.148 1.2l152.51 129.047-153.793 104.578a17.869 17.869 0 0 1 -1.549-7.273zm382 18h-364a18.005 18.005 0 0 1 -3.306-.318l153.326-104.262 4.85 4.1a41.878 41.878 0 0 0 54.26 0l4.85-4.1 153.326 104.262a18.014 18.014 0 0 1 -3.306.318zm18-18a17.869 17.869 0 0 1 -1.549 7.273l-153.793-104.58 153.736-130.084a17.856 17.856 0 0 1 1.606 7.391z"/><path d="m48 304a8 8 0 0 0 0-16h-16a8 8 0 0 0 0 16z"/></g></svg>